<svg xmlns="http://www.w3.org/2000/svg" viewBox="0 0 25.41 25.5"><defs><style>.cls-1{fill:#fff;stroke:#fff;stroke-miterlimit:10;stroke-width:0.5px;}</style></defs><title>phone</title><g id="Слой_2" data-name="Слой 2"><g id="Слой_1-2" data-name="Слой 1"><path class="cls-1" d="M5.3,16.87a26.38,26.38,0,0,0,8.82,6.91,13.64,13.64,0,0,0,4.94,1.46h.35a4.12,4.12,0,0,0,3.17-1.36s0,0,0,0a12.06,12.06,0,0,1,1-1c.24-.24.49-.48.73-.73a2.5,2.5,0,0,0,0-3.72l-3.11-3.12a2.52,2.52,0,0,0-1.83-.84,2.58,2.58,0,0,0-1.84.84l-1.86,1.85-.51-.27a5,5,0,0,1-.57-.31,19.59,19.59,0,0,1-4.69-4.27A10.91,10.91,0,0,1,8.33,9.74c.48-.45.94-.91,1.38-1.36l.48-.48A2.66,2.66,0,0,0,11.05,6a2.66,2.66,0,0,0-.86-1.87L8.64,2.63l-.52-.54c-.35-.35-.7-.72-1.06-1A2.55,2.55,0,0,0,5.24.25a2.63,2.63,0,0,0-1.84.8L1.46,3A3.94,3.94,0,0,0,.27,5.54,9.55,9.55,0,0,0,1,9.68,24.25,24.25,0,0,0,5.3,16.87ZM1.54,5.65a2.69,2.69,0,0,1,.82-1.76L4.29,2a1.39,1.39,0,0,1,1-.44A1.3,1.3,0,0,1,6.17,2c.35.32.68.66,1,1l.54.54L9.28,5.08a1.42,1.42,0,0,1,.49,1,1.44,1.44,0,0,1-.49,1L8.8,7.5c-.48.49-.93.95-1.43,1.39l0,0a1,1,0,0,0-.26,1.15l0,0a12.1,12.1,0,0,0,1.82,3,20.67,20.67,0,0,0,5,4.54,6.66,6.66,0,0,0,.69.38c.2.1.39.2.57.31l.05,0a1.07,1.07,0,0,0,.5.13,1.15,1.15,0,0,0,.78-.35l1.93-1.94a1.38,1.38,0,0,1,.95-.46,1.28,1.28,0,0,1,.92.46l3.12,3.12a1.25,1.25,0,0,1,0,1.95q-.33.35-.69.69a14.41,14.41,0,0,0-1.08,1.12,2.84,2.84,0,0,1-2.23.95h-.27a12.52,12.52,0,0,1-4.46-1.34,25.24,25.24,0,0,1-8.4-6.58A23.17,23.17,0,0,1,2.19,9.26a8.31,8.31,0,0,1-.65-3.61Z"/></g></g></svg>