<svg xmlns="http://www.w3.org/2000/svg" viewBox="0 0 29.75 25.9"><defs><style>.cls-1{fill:#fff;}</style></defs><title>telegram</title><g id="Слой_2" data-name="Слой 2"><g id="Слой_1-2" data-name="Слой 1"><path class="cls-1" d="M.53,12.42,7.38,15,10,23.51a.81.81,0,0,0,1.28.39l3.83-3.12a1.14,1.14,0,0,1,1.39,0l6.89,5a.81.81,0,0,0,1.26-.49L29.73,1A.8.8,0,0,0,28.65.06L.52,10.91a.81.81,0,0,0,0,1.51Zm9.08,1.2L23,5.36a.23.23,0,0,1,.28.37L12.23,16a2.29,2.29,0,0,0-.71,1.37l-.38,2.79a.35.35,0,0,1-.68,0L9,15.13a1.32,1.32,0,0,1,.59-1.51Z"/></g></g></svg>