<svg xmlns="http://www.w3.org/2000/svg" viewBox="0 0 24.56 26"><defs><style>.cls-1{fill:#fff;}</style></defs><title>viber</title><g id="Слой_2" data-name="Слой 2"><g id="Слой_1-2" data-name="Слой 1"><path class="cls-1" d="M24,6.19A7.93,7.93,0,0,0,22.39,3,8,8,0,0,0,18.17.66,17.74,17.74,0,0,0,14,.05c-.81,0-1.46,0-2.06,0A18.46,18.46,0,0,0,5.38,1,7.22,7.22,0,0,0,.57,6.36,22.39,22.39,0,0,0,.2,14.5a9.5,9.5,0,0,0,1.45,4.22A7.31,7.31,0,0,0,5.4,21.6c0,.33,0,.75,0,1.2,0,.79.09,1.68.09,2.15a1,1,0,0,0,.63,1,1.05,1.05,0,0,0,1.13-.18l.23-.2c.6-.5,2.2-1.84,3.27-2.87l0-.05.05-.05h1a27.07,27.07,0,0,0,6.64-.81,7.06,7.06,0,0,0,5.18-4.47,13.56,13.56,0,0,0,.72-3.66A21.19,21.19,0,0,0,24,6.19ZM11.73,7.93a3.77,3.77,0,0,1,3.77,3.78.52.52,0,0,1-.52.52.52.52,0,0,1-.53-.52A2.73,2.73,0,0,0,11.73,9a.52.52,0,0,1-.53-.52A.53.53,0,0,1,11.73,7.93ZM11.2,6.51A.53.53,0,0,1,11.73,6a5.73,5.73,0,0,1,5.72,5.73.53.53,0,0,1-1.05,0A4.68,4.68,0,0,0,11.73,7,.53.53,0,0,1,11.2,6.51Zm5.58,11A1.63,1.63,0,0,1,15,18c-.55-.22-1.09-.47-1.62-.74a15.32,15.32,0,0,1-4.41-3.33A15.29,15.29,0,0,1,5.56,8.31a1.24,1.24,0,0,1,.36-1.43,9.84,9.84,0,0,1,1.27-1,.84.84,0,0,1,1,.08,7.44,7.44,0,0,1,1.93,2.61.77.77,0,0,1-.22,1c-.17.13-.32.27-.49.41a.89.89,0,0,0-.33,1.17A5.38,5.38,0,0,0,11.43,14a6.3,6.3,0,0,0,1.18.54.71.71,0,0,0,.85-.3l.35-.43a1,1,0,0,1,1.36-.25c.78.51,1.54,1.05,2.27,1.62.19.15.25.44.33.59A2.68,2.68,0,0,1,16.78,17.46Zm2.09-5.23a.52.52,0,0,1-.52-.52,6.63,6.63,0,0,0-6.62-6.62.53.53,0,1,1,0-1.06,7.68,7.68,0,0,1,7.67,7.68A.52.52,0,0,1,18.87,12.23Z"/></g></g></svg>